<?xml version="1.0" encoding="UTF-8" standalone="no"?>
<svg xmlns:rdf="http://www.w3.org/1999/02/22-rdf-syntax-ns#" xmlns="http://www.w3.org/2000/svg" xml:space="preserve" overflow="visible" height="123" viewBox="0 0 123 123" width="123" version="1.0" enable-background="new 0 0 85.039 85.039" xmlns:cc="http://creativecommons.org/ns#" xmlns:xlink="http://www.w3.org/1999/xlink" xmlns:dc="http://purl.org/dc/elements/1.1/"><defs><linearGradient id="linearGradient4101"><stop offset="0"/><stop stop-color="#fff" stop-opacity="0" offset="1"/></linearGradient><linearGradient id="linearGradient16355" gradientUnits="userSpaceOnUse" x2="-57.286" gradientTransform="matrix(-.85230 0 0 1 34.134 0)" y1="89.223" x1="-57.286"><stop offset="0"/><stop stop-opacity="0" offset="1"/></linearGradient><linearGradient id="linearGradient16380" y2="61.353" gradientUnits="userSpaceOnUse" x2="63.959" gradientTransform="matrix(1.3003 0 0 1.2927 -21.666 -4.4085)" y1="-1.0691" x1="63.959"><stop offset="0"/><stop stop-color="#fff" stop-opacity="0" offset="1"/></linearGradient><linearGradient id="linearGradient16383" y2="9.5574" xlink:href="#linearGradient4101" gradientUnits="userSpaceOnUse" x2="54.771" gradientTransform="matrix(1.3876 0 0 .67114 -14.5 83.782)" y1="52.978" x1="54.771"/><linearGradient id="linearGradient16441" xlink:href="#linearGradient4101" gradientUnits="userSpaceOnUse" x2="2.4435" gradientTransform="scale(.85246 1)" y1="85.039" x1="2.4435"/></defs>
<path id="bgColor00" fill="#003380" d="m1.5 1.5v120h120v-120h-120z"/><path opacity=".2" d="m121.5 1.5h-120v120h120v-120zm-117.18 2.8208h114.36v114.36h-114.36v-114.36z" fill="#4d4d4d"/><polygon opacity=".25" transform="matrix(1.6553 0 0 1.4111 1.5 1.5)" points="0 0 0 85.039 4.831 80.617 4.887 4.767" fill="url(#linearGradient16441)"/><polygon opacity=".2" transform="matrix(1.6556 0 0 1.4111 -19.295 1.5)" points="80.215 80.617 80.158 4.767 85.039 0 85.039 85.039" fill="url(#linearGradient16355)"/><rect opacity=".7" height="36.033" width="114" y="83.305" x="4.5" fill="url(#linearGradient16383)"/><rect height="57.293" width="117.6" y="2.5895" x="2.6983" fill="url(#linearGradient16380)"/><path opacity=".2" d="m4.7812 4.4688l2.5 2.5h108.66l2.44-2.4376v-0.0624h-113.6z" fill-rule="evenodd" fill-opacity=".75" fill="#fff"/><path opacity=".35" d="m0 0v123h123v-123h-123zm5.5938 5.6562h111.81v111.69h-111.81v-111.69z" fill-rule="evenodd"/><path opacity=".25" d="m0 0v5.375 112.24 5.38h117.62 5.38v-5.38-112.24-5.38h-5.38-112.24-5.38zm5.375 5.375h112.24v112.24h-112.24l-0.005-112.24z" fill-rule="evenodd"/></svg>
