<?xml version="1.0" encoding="UTF-8" standalone="no"?>
<svg xmlns:rdf="http://www.w3.org/1999/02/22-rdf-syntax-ns#" xmlns="http://www.w3.org/2000/svg" xml:space="preserve" height="100%" width="100%" version="1.0" xmlns:cc="http://creativecommons.org/ns#" xmlns:xlink="http://www.w3.org/1999/xlink" viewBox="0 0 120.65643 120.66074" xmlns:dc="http://purl.org/dc/elements/1.1/">
 <defs><linearGradient id="linearGradient4422" y2="225.82" gradientUnits="userSpaceOnUse" x2="385.81" gradientTransform="matrix(.40777 0 0 .42262 -97.954 137.02)" y1="-23.56" x1="385.81"><stop stop-opacity=".26106" offset="0"/><stop stop-color="#a9a9a9" stop-opacity="0" offset=".39404"/><stop stop-opacity=".52655" offset="1"/></linearGradient><linearGradient id="linearGradient4445" y2="155.81" gradientUnits="userSpaceOnUse" x2="-150.81" gradientTransform="matrix(.71184 0 0 .71184 166.42 108.7)" y1="35.443" x1="-150.81"><stop stop-opacity="0.8" offset="0"/><stop stop-opacity=".5" offset="1"/></linearGradient><linearGradient id="linearGradient6347" y2="198.55" gradientUnits="userSpaceOnUse" x2="59.368" gradientTransform="matrix(.94372 0 0 .94372 3.6954 7.8839)" y1="136.79" x1="59.546"><stop stop-color="#fff" stop-opacity=".91593" offset="0"/><stop stop-color="#fff" stop-opacity=".14159" offset="1"/></linearGradient></defs>
<g transform="matrix(1.4048 0 0 1.4048 -21.5 -23.794)">
 <g transform="translate(-.71775 -116.99)"><g transform="translate(-214.8 135.19)"><path id="bgColor00" style="color:#000000" d="m486.04 94.254a100.23 96.364 0 1 1 -200.47 0 100.23 96.364 0 1 1 200.47 0z" transform="matrix(.42736 0 0 .44451 108.78 -.11418)" fill="#0f0"/></g><path style="color:#000000" d="m100.24 176.85a40.872 40.725 0 1 1 -81.744 0 40.872 40.725 0 1 1 81.744 0z" fill="url(#linearGradient4422)"/><path style="color:#000000" d="m60.313 133.95a42.835 42.835 0 0 0 -44.09 42.821 42.844 42.844 0 0 0 85.688 0 42.835 42.835 0 0 0 -41.598 -42.821zm0.17796 2.0688a40.796 40.796 0 0 1 39.596 40.775 40.798 40.798 0 0 1 -81.595 0 40.796 40.796 0 0 1 41.999 -40.775z" fill="url(#linearGradient4445)"/><path style="color:#000000" d="m89.388 165.69a29.666 29.56 0 1 1 -59.333 0 29.666 29.56 0 1 1 59.333 0z" fill="url(#linearGradient6347)"/></g></g></svg>
